<svg version="1" xmlns="http://www.w3.org/2000/svg" width="1366.667" height="1366.667" viewBox="0 0 1025.000000 1025.000000"><path d="M857.7 261.6c-.1.1-6.9.4-15.2.8-8.2.4-16.8.8-19 1.1-2.2.2-6.9.6-10.5 1-7 .6-7.5.7-22.5 3-38.8 5.8-66.4 16.6-93 36.5-29.2 21.9-46.9 49.2-53.5 82.5-2.5 12.4-3.4 35-1.9 45.5.5 3.6 1.1 7.6 1.3 9 3.7 26.2 22.8 60.7 46.1 83.4 16.3 15.9 33.6 26.4 84.2 51.3 26.1 12.8 40.1 20.5 53.4 29.4 11.3 7.6 16.9 23.2 13.2 36.5-2.7 9.2-11.5 16.5-26 21.5-2.9 1-5.3 1.6-5.3 1.4 0-.3-1.2 0-2.6.5-5 1.9-25.2 2.3-35.9.6-12.7-1.9-12.8-1.9-24.3-5.6-8.8-2.9-25.1-10.3-36-16.4-12.8-7.3-33.2-23.6-49.5-39.5-7-6.9-13.5-12.8-14.4-12.9-.8-.2-2 .1-2.7.8-.8.8-1.1 19.3-1.1 68.1 0 36.8.2 67.4.5 67.8.6 1 6.3 3.7 22.3 10.5 21.6 9.2 41.8 15.4 62.7 19.2 1.4.2 3.6.6 5 .9 1.4.3 4.8.7 7.5 1.1 2.8.3 6.1.7 7.5 1 1.4.2 7.5.6 13.5.9 6.1.3 14.6.8 19 1 10.4.6 47.4.7 48.3.2.4-.3 4.4-.8 9-1.1 4.6-.4 8.9-.9 9.5-1.1.7-.2 2.9-.7 5-1 6-.8 17.5-3.5 24.7-5.7 73.2-22.3 117.4-73.2 125.8-144.8 1.3-11 .7-35.2-1.2-45.2-1.8-9.8-6.8-25.7-9.7-30.6-1-1.8-1.9-3.7-1.9-4.3 0-1.4-9.5-16.4-14.9-23.4-4.4-5.9-25.8-27.5-27.1-27.5-.4 0-2-1.1-3.6-2.5-3.3-2.9-19.9-14.5-20.8-14.5-.3 0-2.4-1.3-4.8-2.9-4.2-2.8-36.1-19.1-37.4-19.1-.4 0-14.2-6.7-30.8-14.9-33.6-16.7-40.9-21.6-46-31.1-4.1-7.6-4.8-18.4-1.6-25.3 4-8.5 11.7-12.9 25.5-14.6 8-.9 23.4-.5 31.5.9 3 .5 6.9 1.2 8.5 1.5 13.6 2.3 31.6 10.1 46.5 20 5.2 3.6 10.9 7.7 12.6 9.2 1.7 1.5 4.6 4.2 6.5 5.8 1.9 1.7 8.3 8.3 14.3 14.8 6 6.4 11.5 11.7 12.2 11.7 3.2 0 3.4-2.5 3.4-70.4.1-37.2-.2-68.1-.5-68.6-1.1-1.8-25.7-8.7-42.5-11.9-19.5-3.7-26.3-4.4-46.2-4.5-9.3-.1-17-.1-17.1 0zM161.3 277.8c-.7.8-1.1 2.2-.9 3.1.3.9 1.6 5.9 3 11.1 1.4 5.2 3.4 12.9 4.6 17 1.1 4.1 2.3 8.6 2.6 10.1.4 1.7-16.9 55-58.1 179-32.2 97-60.7 181.8-63.2 188.4-2.5 6.6-6.5 17.4-8.9 24-5.6 15.6-10.3 27.9-14.8 38.7-3.7 9-4.3 12.2-2.5 13.3.7.5 98.1.9 118.2.6 3.1-.1 4.1-1.9 5-9.1.4-2.5.8-5.4 1.1-6.5.3-1.1 1.6-6.7 2.9-12.5 1.4-5.8 4.6-19.3 7.2-30 2.5-10.7 4.8-20.6 5.1-22 .2-1.4.9-3.6 1.5-5l1-2.6 20.2.3c57.4.7 83.9 1.2 84.2 1.5.2.2.6 1.9.9 3.8.3 1.9 1.7 9.1 3.1 16 3.8 18.4 6.5 32 7.1 36 .3 1.9 1.4 7.8 2.4 13 1.1 5.2 2.1 10.8 2.4 12.4.3 1.6.9 3.3 1.4 3.8.7.7 156.3 1.4 198.4.9 7.8-.1 8.8 5-12.1-58.6-5.5-16.5-20.4-61.7-33.1-100.5-12.7-38.8-24.9-75.7-27-82-2-6.3-13.2-40.3-24.8-75.5-11.6-35.2-23-69.6-25.2-76.5-2.3-6.9-4.3-13-4.4-13.5-.2-.6-.6-1.7-.9-2.5-.3-.8-6-18.2-12.7-38.5-6.7-20.4-12.6-37.5-13.1-38-.7-.7-30.4-1-85.1-1-70.2 0-84.3.2-85.5 1.3zm58.4 197.4c.1 1.4 10 43.4 18.4 77.7 2.7 11.2 4.7 20.6 4.4 20.9-.8.9-47.6.8-48.1 0-.2-.4 0-2.6.6-5s1.2-5 1.4-5.8c.2-.8.9-3.5 1.6-6 .7-2.5 1.3-5.2 1.5-6 .5-2.5 18.5-74.4 19-75.8.2-.6.6-1.2.8-1.2.2 0 .4.6.4 1.2zM555.5 680.8c-12.9 1.4-27.2 10.6-33.3 21.5-7 12.4-7.5 23.8-1.7 36.5 12 26.3 50.3 33.1 72.2 12.9 12.3-11.3 16.9-29.2 11.1-42.7-3.2-7.5-4.8-9.9-9.9-15-9.6-9.7-24.2-14.7-38.4-13.2z"/></svg>